<svg xmlns="http://www.w3.org/2000/svg" viewBox="0 0 168 168"><defs><style>.cls-1{fill:#fff;}</style></defs><g id="Ebene_2" data-name="Ebene 2"><g id="Ebene_1-2" data-name="Ebene 1"><circle cx="84" cy="84" r="84"/><path class="cls-1" d="M152.59,86.9,120.71,61.79V76.22H48.18V61.79L16.3,86.9,48.18,112V97.57h72.53V112ZM45.38,94.76v11.46L20.84,86.9,45.38,67.57V79h78.14V67.57L148.06,86.9l-24.54,19.32V94.76Z"/><polygon class="cls-1" points="69.05 59.26 69.05 67.88 65.86 67.88 65.86 69.49 73.86 69.49 73.86 67.88 70.96 67.88 70.96 57.51 68.91 57.51 65.2 59.62 65.96 61.04 69.05 59.26"/><path class="cls-1" d="M76.82,71.86a4.6,4.6,0,0,0,1.68-3.32v-.27a1.26,1.26,0,0,0-2.51,0v.27a1,1,0,0,0,.89,1.1,5.05,5.05,0,0,1-1.46,2.22Z"/><path class="cls-1" d="M84.73,68.06a2.81,2.81,0,0,1-2.59-1.63l-1.41,1.12a4.4,4.4,0,0,0,4,2.14A3.91,3.91,0,0,0,89,65.61a3.48,3.48,0,0,0-3.62-3.74,2.55,2.55,0,0,0-2.51,1.56h-.12L83,59.19h5.32V57.5h-6.8l-.44,6.68,1.59.23a2.53,2.53,0,0,1,2-.95A2,2,0,0,1,87,65.66v.21A2,2,0,0,1,84.73,68.06Z"/><path class="cls-1" d="M93,63.5A1.64,1.64,0,0,1,94.85,62c1.1,0,1.63.69,1.63,2.08v5.44h1.87v-6A1.61,1.61,0,0,1,100.17,62c1.14,0,1.65.7,1.65,2.08v5.44h1.87V63.82c0-2.19-1-3.47-2.81-3.47a2.7,2.7,0,0,0-2.7,1.82h-.05a2.64,2.64,0,0,0-2.64-1.82A2.38,2.38,0,0,0,93.1,62H93V60.56H91.14v8.93H93Z"/></g></g></svg>