<svg xmlns="http://www.w3.org/2000/svg" viewBox="0 0 168 168"><defs><style>.cls-1{fill:#fff;}</style></defs><g id="Ebene_2" data-name="Ebene 2"><g id="Ebene_1-2" data-name="Ebene 1"><circle cx="84" cy="84" r="84"/><path class="cls-1" d="M92.66,33.81a6.06,6.06,0,0,0-6,6V61.37h14.28V48.09h34V33.81Zm39.87,12h-34V59.05H88.93V39.86a3.74,3.74,0,0,1,3.73-3.73h39.87Z"/><rect class="cls-1" x="98.57" y="70.23" width="2.32" height="8.21"/><rect class="cls-1" x="98.57" y="64.02" width="2.32" height="4.05"/><rect class="cls-1" x="98.57" y="80.61" width="2.32" height="3.88"/><rect class="cls-1" x="92.59" y="64.02" width="2.32" height="7.54"/><rect class="cls-1" x="92.59" y="73.72" width="2.32" height="10.76"/><rect class="cls-1" x="86.6" y="69.8" width="2.32" height="9.59"/><rect class="cls-1" x="86.6" y="64.02" width="2.32" height="3.62"/><rect class="cls-1" x="86.6" y="81.56" width="2.32" height="2.92"/><path class="cls-1" d="M103.91,97.12a6.05,6.05,0,0,0-4.63-9.86H76.44a9,9,0,0,0,3-6.69A3.16,3.16,0,0,0,76.3,77.4H55a17.37,17.37,0,0,0-15.63,9.84H26v2.32H38.45a17.51,17.51,0,0,0-.8,5.2H40A15.06,15.06,0,0,1,55,79.72H76.3a.83.83,0,0,1,.82.84,6.66,6.66,0,0,1-6.49,6.69H61.94v1.16A11.28,11.28,0,0,1,50.67,99.68h-.09l.09,2.32A13.61,13.61,0,0,0,64.21,89.57h6.27l0,0,.13,0H99.18a3.77,3.77,0,0,1,0,7.54H76.27v2.32h27.54a3.77,3.77,0,0,1,0,7.54H76.34v2.31H99.17a3.77,3.77,0,1,1,0,7.53H76.34v2.32H89.9a3.77,3.77,0,1,1,0,7.54H54.75c-8.72,0-15.81-7.35-15.81-16.39H36.7a19.09,19.09,0,0,0,2.83,10H26v2.32H41.22A17.72,17.72,0,0,0,54.75,129H89.91A6.11,6.11,0,0,0,96,122.91a6,6,0,0,0-1.35-3.77h4.53a6.09,6.09,0,0,0,6.09-6.08,6,6,0,0,0-1.35-3.78,6.08,6.08,0,0,0,0-12.16Z"/></g></g></svg>