<svg xmlns="http://www.w3.org/2000/svg" viewBox="0 0 168 168"><defs><style>.cls-1{fill:#fff;}</style></defs><g id="Ebene_2" data-name="Ebene 2"><g id="Ebene_1-2" data-name="Ebene 1"><circle cx="84" cy="84" r="84"/><path class="cls-1" d="M83.63,22a62,62,0,1,0,62,62A62.05,62.05,0,0,0,83.63,22Zm0,117.74A55.65,55.65,0,0,1,36.36,54.58l17.2,13a17,17,0,0,0-1,2l2.16.88A14.41,14.41,0,0,1,55.44,69L69.59,79.63a11.36,11.36,0,0,1-6.76-.57l-.08,0-.81,2.19a13.64,13.64,0,0,0,10,.16l34.2,25.78L82.83,120.59A3.79,3.79,0,0,1,79,114l11.81-6.82-1.16-2L69.8,116.67A3.79,3.79,0,1,1,66,110.11L85.9,98.62l-1.17-2L60.8,110.42A3.79,3.79,0,0,1,57,103.85l4-2.33L81,90l-1.17-2L59.88,99.5a3.79,3.79,0,1,1-3.79-6.56l10.69-6.17-1.25-2L54.92,90.92h0l-.09,0h0a6.12,6.12,0,0,0-2.16,8.3,6.06,6.06,0,0,0,3.08,2.61,6,6,0,0,0-2.22,2.36,16.38,16.38,0,0,1-5.68-19.81l-2.08-.85A19.17,19.17,0,0,0,44.59,94L32,88.8,31.08,91l14.19,5.83a18,18,0,0,0,7.56,9.75,6.09,6.09,0,0,0,9.05,5.94,6,6,0,0,0,.72,4A6.12,6.12,0,0,0,71,118.69l4-2.28a6,6,0,0,0,.73,4A6.13,6.13,0,0,0,84,122.62h0l24.15-13.94,16.79,12.65A55.56,55.56,0,0,1,83.63,139.77ZM94.31,70.28a.84.84,0,0,1,.44,1.09,6.7,6.7,0,0,1-8.6,3.75L78.06,71.8l-.44,1.08a11.44,11.44,0,0,1-2.16,3.37l-16-12a15.14,15.14,0,0,1,15-2.06l5.21,2.14h0Zm19.69,35,.62-.35a17.84,17.84,0,0,0,8.58-12.36l13.28-7.67-1.16-2L123.5,89.71a19.27,19.27,0,0,0-2.57-10.15l-2,1.13c4.54,7.87,2.06,17.84-5.53,22.23l-1.47.85L77.33,77.66a13.91,13.91,0,0,0,2-2.84l5.85,2.42a9.43,9.43,0,0,0,3.55.62,9.33,9.33,0,0,0,2.87-.52,9.06,9.06,0,0,0,5.35-5.08,3.18,3.18,0,0,0-1.72-4.14L85.88,64.3l3.72-2.16a15.15,15.15,0,0,1,20.67,5.54l2-1.16A17.23,17.23,0,0,0,109,62.39l14-8.3-1.17-2L107,60.84a17.47,17.47,0,0,0-18.56-.72l-5.1,3h0l-.19.1-2.3-.94h0L75.39,60a17.43,17.43,0,0,0-17.82,2.78L39.94,49.48a55.68,55.68,0,0,1,88.91,67Z"/></g></g></svg>