<svg xmlns="http://www.w3.org/2000/svg" viewBox="0 0 168 168"><defs><style>.cls-1{fill:#fff;}</style></defs><g id="Ebene_2" data-name="Ebene 2"><g id="Ebene_1-2" data-name="Ebene 1"><circle cx="84" cy="84" r="84"/><path class="cls-1" d="M140.53,101.3,109.12,60c0-.54,0-1.09,0-1.65a33.22,33.22,0,0,0-32.32-34A33,33,0,0,0,47.94,74.53a17.06,17.06,0,0,1,2,12.56l-3.62,16.17-17.06,4.81.73,2.58,18.59-5.25,4-17.72a19.71,19.71,0,0,0-2.27-14.54A30.31,30.31,0,0,1,76.72,27.06a30.51,30.51,0,0,1,29.72,31.21c0,.76,0,1.51,0,2.24h0a52.68,52.68,0,0,0,3,15.38l2,6a.67.67,0,0,1-.13.68.68.68,0,0,1-.66.21l-2.41-.54h0l-6.3-1.45L98.52,95.87a3.93,3.93,0,0,1-4.66,2.95L81.69,96.06l-3.57,15.76L84.41,123l-4.1,2.28,1.3,2.34,41.85-23.3-12.62-18.8A3.35,3.35,0,0,0,114,81.05l-2-6A57.4,57.4,0,0,1,109.54,65l28.84,37.9a9.72,9.72,0,0,1-1.93,13.35l-34.93,24.57,1.54,2.19,35-24.6A12.41,12.41,0,0,0,140.53,101.3Zm-20.92,2.06L86.75,121.65,81,111.4l2.75-12.14,9.57,2.17a6.62,6.62,0,0,0,7.85-5l.14-.62,1.65,2.46,2.22-1.49-3.06-4.56L103,88.4l4,5.95,2.22-1.49-5.4-8,.18-.8,3.18.73Z"/><rect class="cls-1" x="110.73" y="95.29" width="2.67" height="8.6" transform="translate(-36.48 79.29) rotate(-33.85)"/><rect class="cls-1" x="105.83" y="98.95" width="2.67" height="6.56" transform="matrix(0.83, -0.56, 0.56, 0.83, -38.78, 77.02)"/></g></g></svg>