<svg xmlns="http://www.w3.org/2000/svg" viewBox="0 0 168 168"><defs><style>.cls-1{fill:#fff;}</style></defs><g id="Ebene_2" data-name="Ebene 2"><g id="Ebene_1-2" data-name="Ebene 1"><circle cx="84" cy="84" r="84"/><path class="cls-1" d="M130.48,61.74V55.87H37.24v5.87c-14.15.78-15.82,14.38-15.82,24.69s1.67,23.92,15.82,24.69V117h93.24v-5.88c14.14-.77,15.82-14.38,15.82-24.69S144.62,62.52,130.48,61.74ZM37.24,108.52C28,108,24,101.27,24,86.43s4-21.52,13.24-22.08Zm90.65,5.89H39.83V101.08h88.06Zm0-15.92H39.83V74.38h88.06Zm0-26.7H39.83V58.46h88.06Zm2.59,36.73V64.35c9.25.56,13.23,7.25,13.23,22.08S139.73,108,130.48,108.52Z"/></g></g></svg>